<?xml version="1.0" encoding="UTF-8"?>
<!DOCTYPE svg PUBLIC "-//W3C//DTD SVG 1.1//EN" "http://www.w3.org/Graphics/SVG/1.1/DTD/svg11.dtd">
<!-- Creator: CorelDRAW -->
<svg xmlns="http://www.w3.org/2000/svg" xml:space="preserve" width="100mm" height="100mm" version="1.1" style="shape-rendering:geometricPrecision; text-rendering:geometricPrecision; image-rendering:optimizeQuality; fill-rule:evenodd; clip-rule:evenodd"
viewBox="0 0 10000 10000"
 xmlns:xlink="http://www.w3.org/1999/xlink"
 xmlns:xodm="http://www.corel.com/coreldraw/odm/2003">
 <defs>
  <style type="text/css">
   <![CDATA[
    .str0 {stroke:#31748F;stroke-width:7.62;stroke-miterlimit:22.9256}
    .fil1 {fill:none}
    .fil0 {fill:#31748F}
   ]]>
  </style>
 </defs>
 <g id="Vrstva_x0020_1">
  <metadata id="CorelCorpID_0Corel-Layer"/>
  <g id="Logo_x0020_2">
   <g>
    <g>
     <g>
      <polygon class="fil0 str0" points="5851.85,629.06 5774.24,782.59 5775.38,944.91 5835.21,1098.34 5947.69,1183.72 6088.03,1233.3 6228.15,1206.7 6351.56,1155.54 6566.32,1423.13 6670.21,1354.34 5972.35,522.54 "/>
      <polygon class="fil0 str0" points="6098.26,422.33 6262.94,372.58 6422.59,401.92 6563.29,487.5 6627.83,613.1 6652.26,759.92 6601.71,893.29 6529.88,1005.93 6756.08,1263.92 6670.28,1354.28 5972.42,522.48 "/>
     </g>
     <g>
      <polygon class="fil0 str0" points="5044.59,1375.39 4966.98,1528.92 4968.12,1691.24 5027.94,1844.68 5140.42,1930.06 5280.76,1979.63 5420.88,1953.03 5544.3,1901.87 5759.05,2169.46 5862.94,2100.67 5165.08,1268.87 "/>
      <polygon class="fil0 str0" points="5290.99,1168.66 5455.67,1118.92 5615.33,1148.25 5756.03,1233.83 5820.56,1359.43 5844.99,1506.25 5794.44,1639.62 5722.61,1752.27 5948.81,2010.26 5863.01,2100.61 5165.15,1268.82 "/>
     </g>
     <g>
      <polygon class="fil0 str0" points="4196.75,2183.41 4119.14,2336.93 4120.28,2499.26 4180.1,2652.69 4292.58,2738.07 4432.92,2787.65 4573.05,2761.05 4696.46,2709.88 4911.21,2977.48 5015.11,2908.69 4317.25,2076.89 "/>
      <polygon class="fil0 str0" points="4443.15,1976.68 4607.83,1926.93 4767.49,1956.26 4908.19,2041.84 4972.72,2167.45 4997.15,2314.27 4946.61,2447.64 4874.78,2560.28 5100.98,2818.27 5015.18,2908.63 4317.31,2076.83 "/>
     </g>
     <g>
      <polygon class="fil0 str0" points="3396.22,2923.54 3318.6,3077.06 3319.74,3239.39 3379.57,3392.82 3492.05,3478.2 3632.39,3527.78 3772.51,3501.18 3895.92,3450.01 4110.68,3717.61 4214.57,3648.82 3516.71,2817.02 "/>
      <polygon class="fil0 str0" points="3642.62,2716.81 3807.3,2667.06 3966.95,2696.39 4107.66,2781.97 4172.19,2907.58 4196.62,3054.4 4146.07,3187.77 4074.24,3300.41 4300.44,3558.4 4214.64,3648.76 3516.78,2816.96 "/>
     </g>
     <g>
      <polygon class="fil0 str0" points="2508.62,3742.27 2431.01,3895.8 2432.15,4058.12 2491.97,4211.55 2604.45,4296.93 2744.79,4346.51 2884.92,4319.91 3008.33,4268.75 3223.08,4536.34 3326.98,4467.55 2629.12,3635.75 "/>
      <polygon class="fil0 str0" points="2755.02,3535.54 2919.7,3485.79 3079.36,3515.13 3220.06,3600.71 3284.59,3726.31 3309.02,3873.13 3258.48,4006.5 3186.65,4119.14 3412.85,4377.13 3327.05,4467.49 2629.18,3635.69 "/>
     </g>
     <g>
      <polygon class="fil0 str0" points="1679.1,4520.03 1601.49,4673.56 1602.63,4835.89 1662.46,4989.32 1774.93,5074.7 1915.27,5124.27 2055.4,5097.68 2178.81,5046.51 2393.56,5314.11 2497.46,5245.32 1799.6,4413.51 "/>
      <polygon class="fil0 str0" points="1925.5,4313.31 2090.18,4263.56 2249.84,4292.89 2390.54,4378.47 2455.07,4504.08 2479.5,4650.9 2428.96,4784.27 2357.13,4896.91 2583.33,5154.9 2497.53,5245.26 1799.67,4413.46 "/>
     </g>
    </g>
    <g>
     <circle class="fil1 str0" transform="matrix(0.952971 0.550198 -0.550198 0.952971 6977.76 1719.13)" r="190.21"/>
     <circle class="fil1 str0" transform="matrix(0.952971 0.550198 -0.550198 0.952971 6168.73 2488.14)" r="190.21"/>
     <circle class="fil1 str0" transform="matrix(0.952971 0.550198 -0.550198 0.952971 5367.16 3231.53)" r="190.21"/>
     <circle class="fil1 str0" transform="matrix(0.952971 0.550198 -0.550198 0.952971 4564.9 3934.05)" r="190.21"/>
     <circle class="fil1 str0" transform="matrix(0.952971 0.550198 -0.550198 0.952971 3684.83 4729.27)" r="190.21"/>
     <circle class="fil1 str0" transform="matrix(0.952971 0.550198 -0.550198 0.952971 2839.87 5520.1)" r="190.21"/>
     <rect class="fil1 str0" transform="matrix(0.952971 0.550198 -0.550198 0.952971 1665.85 7438.19)" width="1702.48" height="125.94"/>
    </g>
    <path class="fil0 str0" d="M7459.57 778.5l412.19 -31.82 304.59 109.75 303.41 165.57 263.17 258.67 178.06 293.17 70.33 314.69 29.7 346.35 -83.9 304.02 -143.29 273.4 -152.6 201.16 -198.8 159.64 -393.24 183.2 -434.37 121.31 -416.74 72.19 -237.85 71.68 -95.3 96.04 -44.96 162.35 -111.16 1904.93 -137.53 585.88 -200.04 488.15 -378.96 662.33 -522.69 -256.24 -213.49 -72 -195.65 -21.93 -244.87 7.95 -235.05 37.24 -216.62 79.65 -185.25 96.91 -217.53 154.61 -159.26 163.41 -177.39 219.49 -941.27 1674.46 -1795.08 -1000.44 927.22 -1600.46 82.49 -207.77 28.64 -167.23 3.14 -192.19 -28.43 -175.68 -74.38 -192.86 -41.22 -161.48 31.31 -126.94 92.38 -135.12 5033.87 -4625.58 516.42 -240.46zm-377.16 759.37c100.11,57.8 134.41,185.81 76.61,285.92 -57.8,100.11 -185.81,134.41 -285.92,76.61 -100.11,-57.8 -134.41,-185.81 -76.61,-285.92 57.8,-100.11 185.81,-134.41 285.92,-76.61zm-809.02 769c100.11,57.8 134.41,185.81 76.61,285.92 -57.8,100.11 -185.81,134.41 -285.92,76.61 -100.11,-57.8 -134.41,-185.81 -76.61,-285.92 57.8,-100.11 185.81,-134.41 285.92,-76.61zm-801.57 743.4c100.11,57.8 134.41,185.81 76.61,285.91 -57.8,100.11 -185.81,134.41 -285.92,76.62 -100.11,-57.8 -134.41,-185.81 -76.61,-285.92 57.8,-100.11 185.81,-134.41 285.92,-76.61zm-802.27 702.52c100.11,57.8 134.41,185.81 76.61,285.92 -57.8,100.11 -185.81,134.41 -285.92,76.61 -100.1,-57.8 -134.4,-185.81 -76.61,-285.92 57.8,-100.11 185.81,-134.41 285.92,-76.61zm-880.06 795.22c100.11,57.79 134.41,185.8 76.61,285.91 -57.8,100.11 -185.81,134.41 -285.92,76.61 -100.11,-57.79 -134.41,-185.8 -76.61,-285.91 57.8,-100.11 185.81,-134.41 285.92,-76.61zm-844.97 790.83c100.11,57.79 134.41,185.8 76.61,285.91 -57.8,100.11 -185.81,134.41 -285.92,76.61 -100.1,-57.79 -134.4,-185.8 -76.61,-285.91 57.8,-100.11 185.81,-134.41 285.92,-76.61zm-1278.67 2099.35l1622.42 936.7 -69.29 120.02 -1622.42 -936.71 69.29 -120.01z"/>
   </g>
  </g>
 </g>
</svg>
